<svg width="20" height="20" viewBox="0 0 20 20" fill="none" xmlns="http://www.w3.org/2000/svg">
<g id="icon-color-filter" clip-path="url(#clip0_0_750)">
<path id="Vector" d="M11.3167 11.4917C11.5417 12.0583 11.6667 12.6833 11.6667 13.3333C11.6667 14.8083 11.025 16.1417 10 17.05C9.08776 17.8784 7.89893 18.3361 6.66667 18.3333C3.90834 18.3333 1.66667 16.0917 1.66667 13.3333C1.66667 11.0333 3.23334 9.08333 5.35001 8.50833" stroke="white" stroke-width="1.5" stroke-linecap="round" stroke-linejoin="round"/>
<path id="Vector_2" d="M14.65 8.50833C16.7667 9.08333 18.3333 11.0333 18.3333 13.3333C18.3333 16.0917 16.0917 18.3333 13.3333 18.3333C12.1011 18.3361 10.9122 17.8784 10 17.05" stroke="white" stroke-width="1.5" stroke-linecap="round" stroke-linejoin="round"/>
<path id="Vector_3" d="M10 11.6667C12.7614 11.6667 15 9.42808 15 6.66666C15 3.90523 12.7614 1.66666 10 1.66666C7.23858 1.66666 5 3.90523 5 6.66666C5 9.42808 7.23858 11.6667 10 11.6667Z" stroke="white" stroke-width="1.5" stroke-linecap="round" stroke-linejoin="round"/>
</g>
<defs>
<clipPath id="clip0_0_750">
<rect width="20" height="20" fill="white"/>
</clipPath>
</defs>
</svg>
