<svg width="26" height="31" viewBox="0 0 26 31" fill="none" xmlns="http://www.w3.org/2000/svg">
<path id="Vector" d="M24.5283 0.299367C24.7532 0.0270756 19.243 5.92038 13.7991 12.5098C13.1231 10.9435 12.0482 8.08546 9.67466 3.97123C9.65475 3.89147 9.60914 3.81964 9.54577 3.76729C9.48191 3.71452 9.40325 3.6837 9.32068 3.67878C8.93708 3.86583 9.23895 4.66498 10.1043 7.16664C10.9696 9.66831 11.3176 10.6889 12.5109 13.7363C8.94359 13.2973 5.35309 13.0698 1.75856 13.0539C1.71512 13.048 1.67114 13.0508 1.62893 13.0626C1.58663 13.0735 1.547 13.0932 1.51258 13.1197C1.47726 13.1464 1.44805 13.1797 1.42658 13.2178C1.40463 13.2555 1.39033 13.297 1.38443 13.3404C1.37853 13.3838 1.38184 13.4282 1.39312 13.47C1.40399 13.5123 1.42373 13.552 1.45035 13.5873C1.47689 13.6217 1.51024 13.6509 1.54791 13.6729C1.58558 13.6948 1.62748 13.7086 1.67092 13.7145C4.90166 14.4178 8.16758 14.9444 11.4548 15.292C2.68145 25.9113 1.64543 27.9417 0.0257369 29.9022C-0.00143273 29.9714 -0.00604065 30.0475 0.012682 30.1197C0.0314071 30.1918 0.0726295 30.2558 0.130058 30.3033C0.187487 30.3507 0.257656 30.3787 0.332005 30.3835C0.406357 30.3883 0.480275 30.3694 0.54309 30.3296C0.318132 30.6019 4.66332 26.1742 13.2792 15.7455C15.5236 21.4023 16.3535 23.0042 17.5124 25.4278C18.6714 27.8513 18.7176 28.0727 19.0787 27.9129C19.4398 27.7531 19.4125 27.7306 18.4785 25.0347C17.5445 22.3389 17.2273 21.1147 15.0835 15.7242C17.9899 16.0447 20.9123 16.2108 23.8362 16.2207C23.8796 16.2266 23.9236 16.2238 23.9663 16.2124C24.0081 16.2011 24.0482 16.1818 24.0826 16.1553C24.1175 16.1282 24.1472 16.0953 24.1682 16.0577C24.1906 16.0196 24.2044 15.9776 24.2103 15.9342C24.2162 15.8908 24.2134 15.8468 24.2021 15.805C24.1907 15.7623 24.171 15.7226 24.1449 15.6877C24.1183 15.6533 24.085 15.6241 24.0468 15.6017C24.0087 15.5803 23.9672 15.566 23.9238 15.5601C20.886 14.8754 17.8132 14.356 14.7189 14.0028C22.2952 4.77686 23.4035 2.71452 25.0456 0.726789C25.0728 0.657606 25.0774 0.581444 25.0587 0.509331C25.04 0.437219 24.9992 0.373592 24.9418 0.326147C24.8844 0.278701 24.8137 0.2503 24.7394 0.245518C24.665 0.240736 24.5911 0.259633 24.5283 0.299367Z" fill="white"/>
</svg>
